<?xml version="1.0" encoding="UTF-8"?><svg id="Layer_2" xmlns="http://www.w3.org/2000/svg" viewBox="0 0 1563.84 1282.21"><defs><style>.cls-1{fill:#01296f;}.cls-2{fill:#fe9813;}</style></defs><g id="Layer_1-2"><path class="cls-2" d="M902.26,90.52c0-24.81,0-49.63,.02-74.44,0-7.73,2.37-10.07,10.15-10.07,93.59,0,187.19-.03,280.78,0,29.09,.01,53.13,24.04,53.14,53.07,.03,80.27,0,160.54,.03,240.81,0,2.15,.07,4.34,.5,6.44,.7,3.43,2.9,5.58,6.46,5.98,2.47,.28,4.97,.47,7.46,.47,81.27,.02,162.54,.02,243.81,.02,33.81,0,59.23,25.51,59.23,59.43,0,180.69,0,361.38,0,542.07,0,33.19-25.64,58.88-58.78,58.88-80.77,0-161.54,0-242.31,0-1.33,0-2.66-.01-4,0-9.93,.11-12.4,2.58-12.4,12.45,0,74.77-.58,149.55,.23,224.32,.42,39.13-32,72.63-72.38,72.26-83.09-.77-166.2-.24-249.3-.2-4.07,0-8.04,.09-11.01-4.76-.12,5.32-2.39,5.32-5.39,3.71-3.62-1.94-5.82-4.9-6.18-9.05-.14-1.65-.06-3.33-.06-4.99-.01-60.29-.02-120.57-.03-180.86,4.91-.78,7.22-4.44,9.07-8.44,5.04-10.91,8.62-22.3,11.08-34.05,1.33-6.34,2.41-12.75,5.64-18.51,3.42-6.11,8.46-9.07,15.59-8.55,7.5,.55,14.08,3.77,20.68,6.88,24.53,11.55,47.82,25.47,71.97,37.74,5.78,2.94,11.51,6,17.72,7.96,8.97,2.84,13.29,.07,14.51-9.22,1.13-8.61,.65-17.28,.98-25.93,.59-15.4-4.85-28.27-14.44-40.28-24.72-30.95-48.72-62.48-73.21-93.62-6.6-8.39-9.44-17.63-9.51-28.18-.25-38.46-.4-76.9,1.96-115.31,.42-6.8,.08-13.67,1.92-20.31,2.02-7.28,5.53-9.84,12.98-9.74,4.71,.06,9.22,1.19,13.71,2.45,114.54,32.16,229.08,64.35,343.64,96.43,11.35,3.18,22.53,7.09,34.26,8.73,9.04,1.26,13.74-1.88,16.5-10.58,1.62-5.11,2.32-10.39,2.62-15.71,1.38-24.56-9.63-42.62-29.07-56.73-69.63-50.55-139.06-101.35-208.63-151.98-53.82-39.17-107.7-78.25-161.61-117.3-12.15-8.8-19.65-20.14-20.36-35.42-.32-6.81-.54-13.63-.7-20.45-1.02-43.08-2.05-86.16-3-129.25-.87-39.58-1.53-79.17-5.22-118.63-1.51-16.17-4.01-32.04-12.06-46.46-12.59-22.56-29.1-39.77-57.02-41.08Z"/><path class="cls-1" d="M902.26,90.52c27.92,1.31,44.43,18.52,57.02,41.08,8.05,14.42,10.55,30.29,12.06,46.46,3.69,39.46,4.35,79.05,5.22,118.63,.94,43.08,1.98,86.16,3,129.25,.16,6.82,.38,13.64,.7,20.45,.71,15.28,8.21,26.61,20.36,35.42,53.91,39.05,107.79,78.13,161.61,117.3,69.57,50.63,139.01,101.43,208.63,151.98,19.44,14.11,30.44,32.17,29.07,56.73-.3,5.31-1,10.6-2.62,15.71-2.76,8.71-7.47,11.85-16.5,10.58-11.73-1.64-22.92-5.55-34.26-8.73-114.56-32.08-229.1-64.27-343.64-96.43-4.49-1.26-9-2.39-13.71-2.45-7.45-.1-10.97,2.46-12.98,9.74-1.84,6.64-1.5,13.51-1.92,20.31-2.36,38.41-2.21,76.86-1.96,115.31,.07,10.55,2.92,19.79,9.51,28.18,24.48,31.14,48.49,62.66,73.21,93.62,9.59,12.01,15.04,24.88,14.44,40.28-.33,8.64,.14,17.32-.98,25.93-1.22,9.29-5.53,12.07-14.51,9.22-6.2-1.96-11.94-5.03-17.72-7.96-24.15-12.28-47.44-26.2-71.97-37.74-6.6-3.11-13.18-6.33-20.68-6.88-7.12-.52-12.16,2.43-15.59,8.55-3.23,5.77-4.31,12.17-5.64,18.51-2.46,11.75-6.04,23.14-11.08,34.05-1.85,4.01-4.16,7.66-9.07,8.44-4.48-.61-6.91-3.65-8.71-7.39-5.8-12.06-9.4-24.82-12.02-37.89-1.05-5.23-2.31-10.38-4.89-15.1-4.31-7.86-10.77-10.55-20.28-8.44-10.83,2.4-20.48,7.63-30.19,12.72-22.79,11.95-45.58,23.91-68.38,35.84-3.82,2-7.65,4.09-12.05,4.51-4.35,.41-8.05-1.24-8.65-5.65-2.17-15.8-4.65-31.65-.96-47.59,1.92-8.3,6.19-15.33,11.54-21.83,24.34-29.54,46.81-60.57,71.41-89.91,10.63-12.67,14.32-27.84,13.6-44.25-1.56-35.24-1.93-70.51-2.4-105.78-.08-6.13-.07-12.32-1.7-18.33-2.16-7.94-6.84-11.25-15.11-10.33-13.13,1.46-25.51,6.06-38.12,9.58-114.02,31.85-228,63.86-341.98,95.86-4.35,1.22-8.71,2.32-13.22,2.2-7.22-.2-11.53-3.8-13.37-11.75-6.16-26.6,.49-49.44,22.06-66.48,19.17-15.15,39.3-29.09,59.06-43.48,104.74-76.28,209.46-152.58,314.27-228.77,15.39-11.18,23.07-25.57,23.33-44.87,.61-45.91,1.91-91.8,3.21-137.7,1.12-39.4,2.4-78.8,4.03-118.18,1.17-28.33,10.23-53.72,30.19-74.55,10.73-11.2,23.93-17.05,39.36-17.99Z"/><path class="cls-2" d="M393.52,0C519.75,0,645.99,0,772.23,0c9.05,0,14.46,4.43,14.68,11.98,.2,6.86-4.51,12.22-11.34,12.77-1.82,.15-3.66,.05-5.49,.05-246.15,0-492.29,0-738.44,0q-6.63,0-6.63,6.61c0,207.84,0,415.68-.01,623.53,0,2.65,.22,5.29-.75,7.9-2.15,5.81-7.47,9.04-13.81,8.18-5.76-.78-10.11-5.62-10.4-11.62-.07-1.33-.01-2.66-.01-4,0-213.17,0-426.34,0-639.51C.02,3.98,3.97,0,15.8,0,141.71,0,267.61,0,393.52,0Z"/><path class="cls-1" d="M233.27,735.16c8.91-11.47,20.72-13.74,33.97-10.37,12.2,3.11,19.09,12.78,19.38,26.95,.24,11.99-.08,23.98,.14,35.97,.06,3.38-1.35,3.8-4.12,3.73-10.22-.26-8.15,1.17-8.27-7.99-.14-10.32,.15-20.66-.08-30.98-.29-13.19-8.42-19.79-21.32-17.66-7.61,1.26-12.74,6.29-13.15,14.65-.6,12.13-.27,24.3-.48,36.45-.03,1.79,1.22,4.68-1.26,5.21-3.33,.7-6.99,.9-10.33-.21-1.4-.47-.66-2.4-.66-3.65-.05-11.32,.03-22.65-.05-33.97-.09-13.45-8.49-20.58-21.69-18.52-7.9,1.23-13.01,6-13.44,14.33-.64,12.29-.31,24.63-.54,36.94-.03,1.77,1.26,4.66-1.37,5.12-3.35,.59-7,.92-10.31-.33-1.26-.48-.57-2.43-.57-3.7-.04-11.32-.07-22.65-.01-33.97,.07-14.04,6.02-23.58,17.16-27.71,13.25-4.92,26.96-1.55,35.8,8.76,.31,.36,.77,.6,1.24,.96Z"/><path class="cls-1" d="M98.12,1066.54c-3.94,13.41-12.1,22.48-24.11,27.69-16.59,7.2-33.48,7.15-49.67-1.04-16.2-8.2-24.18-22.08-23.73-40.15,.45-18.11,9.18-31.72,25.88-38.74,20.99-8.83,41.31-7.22,59.44,7.72,6.03,4.97,9.82,11.59,12.17,19.87-4.06,0-7.79-.08-11.51,.03-2.81,.08-2.91-2.3-3.82-3.91-12.7-22.5-50.78-23.34-64.34-1.41-13.38,21.66,.63,48.47,26.93,50.86,16.26,1.48,30-3.31,38.17-18.74,.96-1.81,2.1-2.26,3.92-2.21,3.32,.09,6.64,.02,10.67,.02Z"/><path class="cls-1" d="M442.24,1087.86c0,11.46-.18,21.59,.09,31.71,.1,3.79-1.01,5.21-4.74,4.65-1.3-.2-2.67-.14-3.99,0-2.69,.27-3.79-.55-3.77-3.54,.13-19.14-.3-38.29,.17-57.42,.53-21.55,18.41-35.92,41.32-33.92,15.68,1.36,27.81,8.06,33.24,23.56,8.66,24.72-10.85,48.41-37.76,46.26-9.06-.72-17.11-3.68-24.57-11.29Zm25.97,.32c15.37,0,26.06-9.94,25.96-24.11-.1-14.03-10.59-23.75-25.74-23.83-15.46-.09-26.11,9.61-26.19,23.86-.08,14.22,10.56,24.09,25.97,24.08Z"/><path class="cls-1" d="M4.5,748.46c0-12.98,.02-25.96-.02-38.94,0-2.27-.22-4.23,3.19-4.14,14.96,.38,29.97-.73,44.9,.59,19.71,1.73,30.62,18.44,24.34,37.13-3.94,11.72-13.22,16.51-24.72,17.82-9.78,1.11-19.62,.53-29.42,.41-4.01-.05-5.58,.8-5.34,5.14,.38,6.97-.02,13.98,.16,20.96,.07,2.92-.63,4.05-3.83,4.07-9.25,.05-9.25,.21-9.25-9.08,0-11.32,0-22.63,0-33.95Zm31.59-31.52c-5.77,0-10.59,.09-15.4-.04-2.24-.06-3.28,.45-3.24,2.98,.13,9.13,.05,18.27,.05,27.4,0,1.4,0,2.71,2.01,2.63,11.26-.46,22.6,1.19,33.78-.96,8.05-1.55,12.04-6.86,12.2-15.21,.17-8.55-3.9-13.86-11.99-15.94-6.08-1.56-12.24-.48-17.4-.86Z"/><path class="cls-1" d="M369.87,770.9c-6.38,14.83-17.81,21.02-32.6,22.36-17.73,1.6-33.68-7.2-39.44-21.83-8.6-21.84,5.09-44.56,28.59-47.5,8.73-1.09,17.25-.49,25.4,3.09,12.86,5.65,20.33,17.6,20.2,31.64-.03,3.21-1.1,3.83-4.03,3.81-18.3-.12-36.6-.07-54.9-.05-5.22,0-5.52,.47-3.56,5.25,6.37,15.49,31.24,20.36,43.05,7.9,3.69-3.89,7.11-5.24,11.95-4.71,1.48,.16,2.99,.03,5.33,.03Zm-36.59-19.15c6.81,0,13.62,0,20.43,0,5.8,0,5.97-.33,3.01-5.56-7.66-13.5-30.73-16.05-42.34-4.68-2.04,2-3.55,4.32-4.79,6.9-1.29,2.69-.6,3.44,2.27,3.38,7.14-.14,14.28-.04,21.42-.04Z"/><path class="cls-1" d="M170.92,923.8c-4.78,11.88-13.31,18.6-25.06,21.13-15.56,3.35-30.08,1.23-41.09-11.27-9.12-10.34-10.7-22.71-5.8-35.49,4.86-12.69,15.09-19.2,28.03-21.15,14.69-2.21,28.24,.45,38.53,12.33,5.33,6.15,7.45,13.51,7.64,21.63,.08,3.51-.95,4.46-4.44,4.43-17.97-.17-35.94-.08-53.91-.08-5.98,0-6.33,.58-3.81,6.1,6.78,14.83,31.15,19.24,42.64,7.12,3.85-4.06,7.5-5.18,12.43-4.76,1.44,.12,2.9,.02,4.84,.02Zm-36.51-19.15c6.81,0,13.62,0,20.43,0,5.8,0,6.09-.4,2.98-5.54-5.15-8.5-13.19-11.74-22.73-11.77-9.69-.03-17.91,3.06-23.23,11.77-.43,.7-.7,1.5-1.11,2.22-1.46,2.6-.65,3.42,2.23,3.37,7.14-.14,14.28-.04,21.42-.04Z"/><path class="cls-1" d="M420.84,1076.7c-6.39,14.84-17.82,21.02-32.61,22.36-17.73,1.6-33.68-7.2-39.43-21.84-8.52-21.66,4.87-44.26,28.11-47.42,8.88-1.21,17.58-.63,25.9,3.02,12.86,5.65,20.32,17.61,20.19,31.65-.03,3.23-1.13,3.82-4.04,3.8-18.3-.12-36.6-.07-54.9-.05-5.21,0-5.51,.48-3.54,5.26,6.37,15.48,31.25,20.35,43.05,7.88,3.7-3.9,7.12-5.22,11.96-4.7,1.48,.16,2.99,.02,5.32,.02Zm-36.05-19.15c6.81,0,13.63-.26,20.42,.09,4.68,.24,4.96-1.29,2.95-4.82-5.16-9.04-13.33-12.55-23.27-12.58-10.11-.03-18.52,3.37-23.71,12.65-.24,.43-.35,.94-.6,1.37-1.52,2.69-.49,3.37,2.28,3.33,7.31-.12,14.61-.04,21.92-.04Z"/><path class="cls-1" d="M86.45,901.3c0,12.82-.1,25.64,.07,38.45,.04,3.32-.65,4.67-4.32,4.61-8.7-.12-8.7,.08-8.7-8.65,0-8.66-.07-17.31,.04-25.97,.03-2.53-.66-3.52-3.36-3.5-16.48,.1-32.96,.13-49.44-.01-3.33-.03-3.28,1.74-3.27,4.08,.05,9.82-.11,19.64,.09,29.46,.07,3.36-.71,4.64-4.35,4.59-8.67-.12-8.68,.07-8.68-8.68,0-23.97,.12-47.94-.11-71.91-.04-4.36,.99-6.21,5.47-5.45,1.29,.22,2.67,.16,3.99,.01,2.87-.32,3.7,.9,3.67,3.69-.14,9.65,.07,19.31-.12,28.96-.06,3.06,.77,3.94,3.88,3.91,16.14-.16,32.29-.17,48.44,0,3.22,.03,3.86-1.04,3.81-3.98-.17-9.48,.07-18.98-.13-28.46-.07-3.33,1.06-4.18,4.25-4.17,8.78,.03,8.78-.12,8.78,8.56,0,11.49,0,22.97,0,34.46Z"/><path class="cls-1" d="M372.61,886.31c13.57-14.79,42.61-12.18,52.25,2.9,3.82,5.97,5.51,12.48,5.65,19.37,.22,10.65-.01,21.31,.11,31.97,.03,2.66-.52,3.78-3.51,3.84-8.88,.19-8.88,.34-8.88-8.46,0-8.66,.05-17.32-.01-25.98-.06-8.47-2.34-16.1-10.59-19.95-8.94-4.18-18.19-4.12-26.67,1.4-6.05,3.94-8.27,10.21-8.33,17.23-.08,10.32-.19,20.65,.06,30.97,.09,3.66-.76,5.33-4.62,4.73-1.3-.2-2.68-.18-3.99,0-3.18,.43-3.89-.99-3.88-3.97,.1-28.64,.11-57.28-.01-85.92-.01-3.33,.97-4.58,4.24-4.12,1.14,.16,2.35,.16,3.49,0,3.61-.52,4.91,.66,4.79,4.57-.31,10.09-.1,20.2-.1,31.42Z"/><path class="cls-1" d="M243.02,934.07c-12.07,12.58-25.95,14.67-40.93,10.15-15.73-4.75-24.98-19.08-23.61-35.16,1.47-17.3,13.14-29.72,30.18-32.15,7.17-1.02,14.28-.84,21.24,1.28,15.31,4.65,24.57,16.96,24.77,33,.12,9.65-.12,19.31,.1,28.96,.08,3.29-.86,4.61-4.15,4.18-1.15-.15-2.34-.15-3.49,0-3.24,.42-4.6-.8-4.14-4.15,.23-1.71,.04-3.48,.04-6.11Zm-26.75,1.21c15.41,.07,26.08-9.75,26.07-23.98,0-14.06-10.48-23.86-25.6-23.96-15.4-.1-26.02,9.69-26.02,23.98,0,14.11,10.43,23.89,25.54,23.96Z"/><path class="cls-1" d="M142.64,1099.2c-21.03,.02-36.45-12-38.73-29.37-2.99-22.83,12.33-39.93,36.36-40.61,20.41-.58,35.86,11.02,38.84,29.14,3.28,20.02-9.88,37.68-30.07,40.27-2.47,.32-4.97,.45-6.4,.57Zm-.98-11.02c15.14-.05,25.63-9.75,25.74-23.81,.11-14.21-10.55-24.14-25.93-24.12-15.34,.01-25.81,9.93-25.68,24.31,.13,14.02,10.71,23.68,25.87,23.62Z"/><path class="cls-1" d="M292.99,890.42c0-9.98,.13-19.97-.07-29.94-.07-3.34,.65-4.65,4.32-4.56,8.09,.19,7.96-.02,8.15,8.2,.1,4.59-2.07,10.48,.97,13.4,2.77,2.66,8.56,.7,13.01,.77,7.15,.11,14.33,.36,21.45-.09,4.68-.3,4.62,2.11,4.53,5.39-.09,3.03,.63,5.74-4.34,5.53-10.46-.44-20.96-.03-31.44-.19-3.11-.05-4.44,.6-4.32,4.09,.34,10.13-.08,20.3,.58,30.41,.47,7.32,5.63,11.23,13.67,11.83,8.73,.65,14.68-2.62,16.84-9.29,.3-.94,.3-1.98,.65-2.9,.74-1.98-.85-5.27,1.23-5.88,3.07-.89,6.61-.56,9.88-.2,2.13,.23,1.17,2.47,1.14,3.76-.31,15.28-9.33,24.26-25.49,25.52-19.17,1.49-30.76-9.21-30.76-28.4,0-9.15,0-18.3,0-27.45Z"/><path class="cls-1" d="M514.84,1043.24c0-9.98,.15-19.97-.08-29.94-.08-3.48,.87-4.55,4.42-4.47,8,.18,7.96-.02,8.02,7.78,.04,4.63-1.51,10.73,.82,13.5,2.72,3.22,9.04,.94,13.79,1.06,7.31,.19,14.64,.2,21.96,0,5.21-.14,3.09,3.6,3.32,5.92,.23,2.29,.98,4.99-3.31,4.89-10.81-.25-21.63,.04-32.44-.15-3.27-.06-4.33,.86-4.22,4.19,.32,10.13-.09,20.3,.58,30.41,.48,7.3,5.68,11.17,13.74,11.74,8.73,.62,14.66-2.68,16.79-9.37,.25-.78,.25-1.65,.55-2.41,.82-2.11-.92-5.52,1.38-6.3,2.84-.96,6.24-.34,9.39-.33,1.74,0,1.49,1.37,1.6,2.51,1.09,11.6-6.1,22.16-17.32,25.47-6.36,1.88-12.83,1.98-19.23,.63-12.44-2.62-19.53-11.7-19.74-25.17-.15-9.98-.03-19.96-.03-29.94Z"/><path class="cls-1" d="M341.42,1055.88c-3.61,0-6.92-.13-10.21,.04-2.61,.14-2.68-1.98-3.57-3.44-6.22-10.26-15.79-13.13-27-11.98-10.85,1.12-18.34,7.29-21.12,16.98-3.66,12.74,3.02,25.24,15.62,29.31,10.76,3.48,27.06,1.02,33.08-12.07,1.86-4.05,5.52-1.62,8.33-2.15,4.6-.85,5.17,.93,3.5,5.02-5.59,13.78-20.04,22.32-37.17,21.59-19.52-.83-33.92-12.57-36.09-29.44-3.12-24.2,15-42.36,40.43-40.48,13.17,.98,24.12,5.91,30.99,17.84,.82,1.43,1.51,2.96,2.09,4.51,.46,1.21,.67,2.52,1.11,4.26Z"/><path class="cls-1" d="M188.06,1075.79c.33-5.67-.5-12.49,.54-19.3,2.39-15.62,12.38-25.12,28.18-26.87,5.34-.59,10.66-.6,15.9,.39,16.33,3.08,25.67,14.45,25.96,31.7,.18,10.48-.13,20.97,.12,31.45,.08,3.49-1.18,4.11-4.28,4.1-8.15-.04-8.15,.09-8.15-8.16,0-8.65,.04-17.31-.01-25.96-.05-8.64-2.27-16.45-10.8-20.3-9.13-4.12-18.5-4.1-27.1,1.66-6.26,4.19-7.93,10.83-8.01,17.91-.11,9.98-.23,19.98,.07,29.96,.12,4.04-1.16,5.44-5.02,4.87-1.14-.17-2.34-.14-3.49,0-2.94,.35-4.17-.59-4.01-3.82,.27-5.48,.07-10.98,.07-17.61Z"/><path class="cls-1" d="M85.13,768.46c0-4.83,0-9.65,0-14.48,0-20.91,12.51-32.31,33.4-30.46,17.06,1.51,26.22,10.55,27.26,26.68,.2,3.15-.57,4.75-4,4.25-.98-.14-2.01-.15-2.99,0-3.86,.59-5.37-.54-5.63-4.89-.61-10.21-6.86-15.17-17.84-15.12-11.03,.05-17.15,4.96-17.6,15.36-.52,12.13-.38,24.29-.14,36.43,.08,4.12-.98,5.86-5.2,5.2-1.3-.21-2.67-.15-3.99,0-2.72,.29-3.36-.98-3.3-3.49,.14-6.49,.05-12.98,.05-19.47Z"/><path class="cls-1" d="M280.35,897.29c0,14.14-.14,28.28,.09,42.42,.06,3.81-1.06,5.18-4.76,4.62-1.3-.19-2.67-.14-3.99,0-2.7,.27-3.77-.58-3.76-3.56,.11-28.95,.1-57.89,0-86.84,0-2.89,.93-3.61,3.69-3.66,8.72-.16,8.72-.28,8.72,8.59,0,12.81,0,25.62,0,38.43Z"/><path class="cls-1" d="M165.91,758.44c0,9.64-.15,19.29,.08,28.92,.08,3.35-.99,4.13-4.17,4.09-8.07-.11-8.07,.04-8.07-8.14,0-17.79,.13-35.58-.1-53.36-.05-3.88,1.13-5.07,4.75-4.54,1.3,.19,2.67,.18,3.98,0,2.88-.39,3.64,.8,3.59,3.6-.16,9.81-.06,19.62-.06,29.42Z"/><path class="cls-1" d="M159.74,715.94c-5.1-.06-8.85-3.62-8.64-8.18,.2-4.28,4.13-7.77,8.73-7.75,4.9,.02,8.74,3.76,8.56,8.34-.17,4.46-3.81,7.65-8.65,7.59Z"/></g></svg>