<?xml version="1.0" encoding="UTF-8"?><svg id="Layer_2" xmlns="http://www.w3.org/2000/svg" viewBox="0 0 1379.54 1318.74"><defs><style>.cls-1{fill:#fe9813;}.cls-2{fill:#fff;}</style></defs><g id="Layer_1-2"><g><path class="cls-1" d="M661.56,1090.99c0,60.79-.03,121.57,.05,182.36,0,5.22-1.25,9.53-5.97,12.27-2.79,1.62-5.32,2.25-6.09-2.77-2.84,3.91-6.38,4.06-10.14,4.06-84.44-.04-168.87,0-253.31-.05-37.17-.02-68.71-31.67-68.72-68.92-.03-75.11,0-150.22-.01-225.33,0-1.83,.04-3.67-.15-5.49-.64-6.09-2.7-8.2-8.69-8.86-1.98-.22-3.99-.18-5.98-.18-81.27,0-162.54,0-243.81,0C25.48,978.08,0,952.56,0,919.25,0,738.22,0,557.2,0,376.17c0-32.89,25.64-58.47,58.59-58.47,81.44,0,162.88,0,244.31-.01,1.99,0,3.99-.11,5.98-.24,5.12-.32,7.92-3.02,8.23-8.17,.12-1.99,.25-3.98,.25-5.98,.01-79.27,0-158.54,.01-237.82,0-31.08,23.53-54.58,54.64-54.58,92.76,0,185.52,0,278.29,0,9.06,0,11.25,2.15,11.26,11.08,0,24.48,0,48.96,0,73.44-14.91,.61-27.86,5.95-38.6,16.32-11.2,10.81-19.32,23.65-24.42,38.36-6.14,17.7-6.38,36.28-7.87,54.64-2.48,30.69-2.71,61.49-3.55,92.24-1.36,49.89-2.56,99.79-3.4,149.69-.29,16.98-6.81,30-20.5,39.95-93.01,67.57-185.96,135.24-278.92,202.89-31.88,23.2-63.92,46.2-95.53,69.77-20.21,15.07-27.96,35.7-24.12,60.62,2.89,18.77,8.64,22.52,27.34,17.29,111.67-31.23,223.3-62.59,334.97-93.81,14.55-4.07,28.86-9.18,43.81-11.59,11.28-1.82,16,2.12,17.69,13.42,.22,1.48,.26,2.98,.36,4.48,2.69,42.88,3.29,85.79,2.61,128.74-.16,9.96-3.37,18.71-9.62,26.65-23.89,30.33-47.25,61.08-71.4,91.2-10.08,12.56-16.89,25.79-16.23,42.19,.39,9.63-.29,19.33,1.51,28.85,1.17,6.2,4.51,8.24,10.79,7.44,3.7-.47,7.02-2.02,10.32-3.59,22.06-10.52,43.21-22.77,64.85-34.08,10.73-5.61,21.37-11.56,33.16-14.8,11.04-3.04,18.52,.72,22.63,11.37,1.37,3.54,2.34,7.29,3.08,11.02,2.63,13.25,6.44,26.11,12.14,38.38,1.82,3.92,4.26,7.17,8.9,7.93Z"/><path class="cls-2" d="M661.56,1090.99c-4.64-.76-7.08-4.01-8.9-7.93-5.71-12.27-9.52-25.13-12.14-38.38-.74-3.73-1.71-7.48-3.08-11.02-4.12-10.65-11.6-14.41-22.63-11.37-11.78,3.25-22.42,9.19-33.16,14.8-21.64,11.31-42.79,23.56-64.85,34.08-3.29,1.57-6.61,3.12-10.32,3.59-6.28,.8-9.62-1.24-10.79-7.44-1.8-9.53-1.12-19.23-1.51-28.85-.66-16.4,6.15-29.62,16.23-42.19,24.15-30.12,47.51-60.87,71.4-91.2,6.25-7.94,9.46-16.68,9.62-26.65,.68-42.94,.09-85.86-2.61-128.74-.09-1.49-.14-3-.36-4.48-1.69-11.3-6.41-15.24-17.69-13.42-14.95,2.41-29.26,7.52-43.81,11.59-111.67,31.22-223.3,62.58-334.97,93.81-18.7,5.23-24.44,1.48-27.34-17.29-3.84-24.91,3.91-45.55,24.12-60.62,31.61-23.57,63.65-46.56,95.53-69.77,92.96-67.65,185.9-135.32,278.92-202.89,13.69-9.95,20.21-22.97,20.5-39.95,.84-49.9,2.04-99.8,3.4-149.69,.84-30.76,1.07-61.55,3.55-92.24,1.49-18.36,1.73-36.94,7.87-54.64,5.1-14.71,13.22-27.55,24.42-38.36,10.74-10.37,23.69-15.71,38.6-16.32,29.46,1.95,45.77,20.97,57.99,45.02,9.5,18.7,11.43,38.98,12.02,59.59,1.44,50.21,3.23,100.42,4.74,150.63,.63,20.96,.91,41.92,1.37,62.88,.27,12.14,.33,24.29,.91,36.42,.77,16.09,8.73,28.27,21.53,37.57,26.5,19.27,53.01,38.54,79.5,57.83,96.03,69.91,192.06,139.83,288.1,209.73,14.51,10.56,26.11,23.19,29.99,41.42,2.22,10.43,1.88,20.87-.7,31.17-2.19,8.76-7.63,12.55-16.6,11.3-14.2-1.98-27.69-6.92-41.43-10.76-112.61-31.45-225.17-63.04-337.75-94.62-3.86-1.08-7.76-1.88-11.75-2.15-7.56-.52-11.88,2.52-14.11,9.8-1.78,5.81-1.77,11.82-1.87,17.8-.62,35.93-.83,71.88-2.49,107.79-.82,17.77,4.67,33.34,16.24,46.86,25,29.24,47.45,60.5,71.72,90.32,10.59,13.01,11.36,28.71,10.18,44.61-.44,5.97-1.2,11.92-1.86,17.87-.81,7.24-4.55,9.9-11.62,8.3-4.93-1.12-9.2-3.77-13.6-6.06-25.79-13.4-51.52-26.89-77.33-40.25-5.46-2.83-11.21-5.01-17.28-6.3-10.79-2.29-17.6,1.26-21.87,11.47-2.59,6.18-3.47,12.81-4.99,19.27-2.43,10.38-5.68,20.47-10.17,30.15-1.81,3.9-4.24,7.19-8.9,7.93Z"/><path class="cls-2" d="M1141.52,161.85c16.38-1.93,31.48,8.72,35.09,24.55,1.89,8.27-.34,15.79-5.75,21.83-9.1,10.15-18.89,19.68-28.31,29.55-1.49,1.56-2.32,1.05-3.55-.22-2.2-2.26-4.56-4.37-8.51-8.1,9.92-9.15,19.82-17.58,28.89-26.84,9.53-9.73,6.65-22.64-5.67-28.62-7.33-3.56-13.9-1.71-21.29,5.9-7.3,7.52-14.83,14.84-21.87,22.59-3.02,3.32-4.67,3.19-7.56-.06-4.74-5.32-4.94-5.1,.24-10.34,7.25-7.34,14.49-14.7,21.66-22.11,10.04-10.38,6.79-25.03-6.76-30.17-7.15-2.71-13.03,.03-18.05,5.06-8.11,8.13-16.25,16.23-24.06,24.65-2.65,2.85-4.33,2.68-6.54-.02-.73-.9-1.57-1.75-2.5-2.43-2.78-2.02-2.74-3.59-.15-6.11,8.1-7.89,15.83-16.17,23.81-24.19,9.94-9.98,20.89-12.57,31.6-7.66,12.99,5.95,20.09,17.6,19.15,31.36-.02,.32,.07,.65,.15,1.39Z"/><path class="cls-2" d="M1312.2,351.38c.04,2.2-1.84,2.17-3.07,2.67-8.9,3.65-17.78,7.35-26.78,10.75-2.98,1.12-3.7,2.17-2.39,5.3,6.14,14.7,12.13,29.47,17.88,44.33,1.27,3.29,2.62,3.19,5.36,2.04,8.71-3.68,17.61-6.92,26.26-10.73,3.29-1.45,4.48-.84,5.7,2.39,3.09,8.19,3.24,8.15-4.85,11.41-22.47,9.07-44.97,18.04-67.37,27.26-3.72,1.53-5.36,1.17-6.77-2.84-2.65-7.56-2.9-7.48,4.56-10.47,7.86-3.15,15.65-6.47,23.6-9.37,3.37-1.23,4.27-2.46,2.78-6.01-6.1-14.54-12.01-29.16-17.7-43.86-1.27-3.28-2.59-3.3-5.39-2.12-9.17,3.87-18.5,7.38-27.65,11.29-2.89,1.24-4.13,1.09-5.36-2.11-3.27-8.57-3.45-8.52,4.93-11.89,22.18-8.91,44.42-17.64,66.48-26.82,4.47-1.86,6.55-1.48,7.65,3.26,.45,1.92,1.41,3.71,2.11,5.51Z"/><path class="cls-2" d="M1218.38,984.66c-10.34-10.08-14.44-21.84-13.09-35.26,2.07-20.53,11.64-36.81,30.32-46.2,16.23-8.17,32.2-5.6,46.27,5.57,14.66,11.63,19.06,27.52,14.74,45.18-5.08,20.79-16.78,36.36-38.66,42.07-5.68,1.48-11.45,1.23-17.83,.12,1.88-3.66,3.63-6.99,5.31-10.36,.84-1.68,2.21-1.6,3.79-1.56,25.24,.62,41.48-29.17,35.78-49-5.86-20.37-30.63-29.99-48.73-18.76-15.84,9.83-26.83,36.29-13,54.34,1.25,1.63,1.04,2.88,.1,4.49-1.66,2.86-3.13,5.83-4.99,9.36Z"/><path class="cls-2" d="M959.74,1208.8c-5.49-9.76-10.48-18.92-15.8-27.89-1.69-2.84-1.31-3.97,1.56-5.52,7.3-3.95,7.24-4.13,11.23,2.93,8.34,14.73,16.68,29.45,24.95,44.22,9.26,16.53,5.7,33.98-9.24,45.71-14.24,11.18-31.98,13.22-45.08,5.19-16.96-10.4-21.75-33.21-9.72-49.03,10.29-13.54,24.1-19.28,42.09-15.61Zm-36.35,34.11c-.14,13.11,10.14,23.93,22.84,24.05,14.51,.14,28.2-12,28.51-25.28,.29-12.69-10.48-24.03-22.94-24.15-14.43-.14-28.28,12.24-28.41,25.38Z"/><path class="cls-2" d="M990.61,73.29c-6.82-.05-13.02-2.3-18.95-5.42-7.19-3.79-14.4-7.56-21.48-11.56-2.35-1.33-3.4-.9-4.57,1.38-3.64,7.08-7.55,14.03-11.16,21.13-1.07,2.11-1.83,2.43-4.04,1.33-9.14-4.55-9.15-4.44-4.26-13.56,11.37-21.2,22.82-42.37,33.97-63.69,1.82-3.49,3.13-3.49,6.23-1.75,10.13,5.68,20.45,11.02,30.7,16.49,4.27,2.28,8.34,4.85,11.9,8.15,8.62,7.99,11.02,18.65,6.69,29.54-4.57,11.49-13.63,18-25.02,17.98Zm-1.52-12.01c3.84,.28,7.2-1.33,10-4.18,8.55-8.69,7.77-19.69-2.51-26.2-8.37-5.31-17.39-9.61-26.06-14.46-2.22-1.24-2.83,.13-3.64,1.66-4.18,7.9-8.27,15.87-12.68,23.64-1.39,2.45-.8,3.38,1.38,4.51,7.79,4.04,15.48,8.27,23.27,12.31,3.1,1.61,6.38,2.82,10.24,2.71Z"/><path class="cls-2" d="M983.98,1206.34c-1.2-5.72-1.21-11.24,.31-16.76,5.28-19.16,28.11-33.5,46.85-29.41,22.66,4.94,33.76,29.55,22.48,49.81-8.77,15.75-27.65,25.02-44.04,21.55-9.11-1.93-15.79-7.29-21.11-14.77-2.09-2.93,.43-3.38,1.79-4.37,14.4-10.42,28.85-20.77,43.29-31.14,5.98-4.3,5.96-4.55-.85-7.96-13.46-6.75-34.06,3.71-37.39,18.99-1.9,8.71-2.6,9.59-11.34,14.07Zm20.22,9.26c14.97,12.9,37.48-.65,41.23-15.46,.88-3.47,1.01-6.82,.26-10.35-.65-3.06-1.65-2.99-3.86-1.32-5.32,3.99-10.78,7.8-16.18,11.68-7.12,5.12-14.24,10.25-21.45,15.44Z"/><path class="cls-2" d="M1297.61,523.02c-12.89-2.21-21.4-9.41-26.64-20.63-4.96-10.63-6.4-21.72-2.43-32.95,4.43-12.54,13.61-19.92,26.63-22.02,12.66-2.04,23.46,2.09,31.47,12.1,8.94,11.17,11.81,24.13,8.57,38.03-3.06,13.17-11.72,21.09-24.74,24.66-3.46,.95-4.5,.22-5.29-3.11-4.19-17.77-8.73-35.46-12.85-53.25-.94-4.06-1.99-4.51-5.31-2.14-10.76,7.67-12.85,23.84-4.58,36.84,1.53,2.41,3.13,5.23,5.7,6.13,7.67,2.7,8.59,9.1,9.47,16.33Zm27.68-36.76c.02-13.27-8.42-24.74-20.2-26.72-2.55-.43-3.46-.07-2.8,2.6,3.58,14.33,7.2,28.66,10.62,43.03,.66,2.76,1.66,2.31,3.26,1.1,6.3-4.75,9.31-11.09,9.12-20.02Z"/><path class="cls-2" d="M1204.47,291.15c-7.47,1.85-14.1,1.52-20.69-.9-17.72-6.5-30.29-27.72-26.79-45.37,4.14-20.85,25.75-32.72,45.52-25,18.66,7.29,30.63,29.44,25.68,47.64-2.09,7.68-6.71,13.56-12.93,18.43-2.57,2.01-3.68,1.39-5.41-.96-10.86-14.72-21.88-29.33-32.84-43.98-3.15-4.21-3.43-4.24-6.12,.51-3.79,6.68-4.07,13.76-.87,20.6,4.89,10.48,12,18.43,24.79,18.48,1.54,0,2.46,.78,3.28,1.89,1.96,2.67,3.94,5.33,6.39,8.65Zm-21.26-59.81c9.93,13.28,19.66,26.28,29.4,39.31,8.11-7.89,5.9-20.22,.26-28.49-7.45-10.95-18.55-15.23-29.67-10.81Z"/><path class="cls-2" d="M1296.14,594.79c-14.38-11.22-17.73-25.82-13.55-42.14,3.59-14.03,13.3-22.49,27.76-24.41,14.28-1.89,26.02,3.15,33.69,15.56,7.39,11.97,8.74,25.05,4.08,38.32-4.48,12.74-13.93,20-27.27,21.8-10.04,1.36-20.17,2.14-30.23,3.39-2.44,.3-3.87,.24-3.69-2.69,.05-.81-.19-1.65-.41-2.45-1.15-4.31-.3-7,4.94-6.63,1.38,.1,2.81-.43,4.68-.74Zm-4-29.57c0,15,9.63,26.41,22.52,26.71,16.67,.38,26.96-12.14,24.53-29.83-1.81-13.15-12.25-22.65-24.15-21.96-13.77,.8-22.91,10.8-22.9,25.08Z"/><path class="cls-2" d="M1338.39,730.48c6.62,9.58,7.06,19.46,4.34,29.63-4.66,17.48-18.48,26.37-36.74,23.5-10.5-1.65-20.92-3.85-31.41-5.55-2.75-.45-3.51-1.05-2.91-4.03,1.7-8.44,1.53-8.55,9.72-7.23,8.53,1.38,17.03,2.89,25.53,4.41,13.73,2.46,23.49-4.24,26.08-17.97,2.72-14.44-3.86-24.65-17.76-27.24-9.96-1.86-19.95-3.59-29.96-5.14-3.11-.48-4.14-1.19-3.41-4.7,1.73-8.26,1.46-8.21,9.99-6.69,26.5,4.71,52.99,9.43,79.53,13.9,3.76,.63,4.27,2.16,3.41,5.23-.31,1.11-.65,2.27-.65,3.41,.01,3.77-1.91,4.26-5.15,3.61-8.31-1.65-16.66-3.08-25.01-4.56-1.59-.28-3.21-.35-5.61-.59Z"/><path class="cls-2" d="M1157.07,1025.74c.05-20.93,18.43-40.86,37.87-41.07,23.47-.26,39.53,20.55,33.42,43.32-4.61,17.19-19.57,30.65-35.19,31.66-20.08,1.31-36.15-13.78-36.09-33.91Zm37.58-29.08c-13.53,.06-26.36,13.83-26.25,28.18,.1,12.32,11.06,23,23.55,22.94,13.47-.06,26.34-13.91,26.25-28.22-.08-12.41-10.93-22.95-23.55-22.9Z"/><path class="cls-2" d="M849.36,1267.83c.36-2.12,.55-4.28,1.11-6.35,2.84-10.47,15.45-19.39,28.8-20.47,11.04-.89,19.6,4.48,24.64,15.71,8.15,18.16,16.14,36.4,24.34,54.53,1.3,2.88,1.08,4.12-2.06,5.41-7.73,3.18-7.65,3.37-10.99-4.11-1.49-3.33-3.16-6.6-4.42-10.01-.96-2.6-2.2-2.62-4.45-1.59-9.95,4.54-20.08,8.71-29.91,13.49-4.1,2-4.85-.37-5.82-3.07-.92-2.57-3.79-5.11,1.37-7.14,10.02-3.94,19.73-8.65,29.63-12.91,2.65-1.14,3.38-2.21,1.98-5.12-3.88-8.07-7.23-16.39-11.02-24.5-4.32-9.23-11.02-11.57-20.48-7.46-9.59,4.17-12.69,10.62-8.79,19.84,1.51,3.56-.14,4.16-2.61,5.24-7.91,3.49-8.21,3.42-10.19-5.05-.49-2.08-1.28-4.17-1.12-6.44Z"/><path class="cls-2" d="M1050.87,1163.97c-4.52-8.25-5.21-16.48-2.75-24.95,4.48-15.46,19.77-28.62,35.02-30.37,25.33-2.91,44.5,21.23,35.93,45.25-7.13,19.99-30.16,32.6-48.65,26.63-3-.97-5.83-2.25-8.52-4.45,1.43-1.33,2.76-2.36,3.82-3.61,2.96-3.51,5.99-4.24,10.74-2.77,13.08,4.04,29.73-7.77,32.55-22.43,2.44-12.65-7.8-25.79-21.11-27.1-16.3-1.6-32.54,16.34-28.76,32.02,.71,2.93,.11,4.62-2.14,6.32-2.09,1.58-3.94,3.48-6.13,5.44Z"/><path class="cls-2" d="M1327.33,645.32c14.76,.86,29.52,1.85,44.3,2.46,3.28,.13,3.78,1.21,3.68,4.06-.3,8.3-.2,8.33-8.57,8.03-3.49-.12-7.01-.14-10.44-.67-3.2-.49-3.98,.6-4.1,3.66-.45,10.96-1.24,21.9-1.8,32.85-.32,6.2-4.77,2.48-7.33,3.08-2.94,.69-3.62-1.06-3.45-3.75,.71-10.78,1.09-21.57,1.97-32.33,.31-3.79-1.32-4.53-4.43-4.66-8.8-.37-17.59-.96-26.39-1.27-9.47-.33-14.88,4.68-15.65,14.21-.86,10.51,3.39,16.74,12.99,17.64,8.34,.78,3.07,6.42,3.63,9.6,.79,4.46-3.35,2.58-5.25,2.37-16.44-1.85-25.39-15.7-22.01-33.75,2.99-15.97,12.75-23.39,28.9-22.24,4.62,.33,9.29,.05,13.94,.05v.67Z"/><path class="cls-2" d="M1178.36,1088.04c.71,15.09-23.37,43.08-47.07,33.59-4.54-1.82-8.56-4.34-12.18-7.59-7.54-6.78-15.02-13.62-22.71-20.22-2.39-2.05-2.63-3.25-.37-5.65,5.81-6.18,5.68-6.3,12.1-.55,6.56,5.87,13.03,11.86,19.7,17.6,6.76,5.82,14.49,8.73,22.89,4.1,8.99-4.96,15.37-12.23,15.45-23.25,.05-6.26-3.42-10.99-7.82-15.01-7.61-6.95-15.22-13.89-23.05-20.59-2.57-2.2-2.42-3.52-.28-5.87,5.53-6.09,5.44-6.21,11.59-.74,6.82,6.08,13.67,12.14,20.41,18.31,6.75,6.19,10.97,13.68,11.33,25.87Z"/><path class="cls-2" d="M1036.36,67.12c15.5,.16,31.78,16.06,31.12,32.09-.13,3.05-.97,5.88-2.15,8.65-3.69,8.72-4.19,8.81-11.85,3.46-2.13-1.48-2.72-2.42-1.21-5,7.4-12.66-1.93-28.06-16.81-27.83-6.02,.09-10.1,3.77-13.33,8.49-6.66,9.74-13.42,19.42-19.85,29.3-1.88,2.89-3.13,2.69-5.64,.91-6.85-4.86-6.91-4.73-2.21-11.56,6.02-8.77,11.91-17.63,18.02-26.33,5.34-7.62,12.34-12.49,23.92-12.18Z"/><path class="cls-2" d="M1332.53,631.07c-14.45,0-28.89-.03-43.34,.04-2.19,.01-3.35-.33-3.25-2.93,.46-11.21-2.09-9.15,8.81-9.41,26.23-.62,52.47-1,78.69-1.8,4.87-.15,5.79,1.24,6.06,5.94,.32,5.57-1.44,6.97-6.6,6.88-13.45-.24-26.91-.08-40.37-.08,0,.45,0,.91,0,1.36Z"/><path class="cls-2" d="M1094.92,107c-.9,1.27-1.43,2.1-2.03,2.87-12.12,15.4-24.31,30.74-36.3,46.24-2.02,2.6-3.21,2.28-5.47,.46-6.54-5.28-6.65-5.2-1.58-11.66,10.97-13.98,22.09-27.84,32.88-41.96,2.49-3.25,4.17-3.32,6.83-.6,1.68,1.72,3.72,3.07,5.68,4.65Z"/><path class="cls-2" d="M1109.26,90.31c-.1,4.2-3.9,7.82-8.11,7.72-4.65-.12-8.81-4.45-8.71-9.07,.1-4.34,3.69-7.77,8.04-7.65,4.69,.13,8.89,4.44,8.78,9.01Z"/></g></g></svg>